<?xml version="1.0" encoding="utf-8"?>
<!-- Generator: Adobe Illustrator 15.0.0, SVG Export Plug-In  -->
<!DOCTYPE svg PUBLIC "-//W3C//DTD SVG 1.1//EN" "http://www.w3.org/Graphics/SVG/1.1/DTD/svg11.dtd" [
	<!ENTITY ns_flows "http://ns.adobe.com/Flows/1.0/">
]>
<svg version="1.1"
	 xmlns="http://www.w3.org/2000/svg" xmlns:xlink="http://www.w3.org/1999/xlink" xmlns:a="http://ns.adobe.com/AdobeSVGViewerExtensions/3.0/"
	 x="0px" y="0px" width="16px" height="16px" viewBox="0 0 16 16" enable-background="new 0 0 16 16" xml:space="preserve">
<defs>
</defs>
<path fill="#404040" d="M0,0v16h16V0H0z M6.524,2.62c0-0.543,0.44-0.985,0.983-0.985h0.984c0.543,0,0.985,0.442,0.985,0.985v0.985
	c0,0.543-0.441,0.983-0.985,0.983H7.507c-0.543,0-0.983-0.44-0.983-0.983V2.62z M8,5.573c1.813,0,1.969,1.969,1.969,1.969
	S10.027,9.51,8,9.51c-2.026,0-1.969-1.968-1.969-1.968S6.187,5.573,8,5.573z M13.906,12.463c0,0.545-0.441,0.986-0.984,0.986H3.078
	c-0.544,0-0.984-0.441-0.984-0.986V7.542c0-0.544,0.44-0.984,0.984-0.984h1.125C4.12,6.874,4.063,7.2,4.063,7.542
	c0,2.176,1.764,3.938,3.938,3.938c2.175,0,3.938-1.762,3.938-3.938c0-0.342-0.059-0.668-0.141-0.984h1.125
	c0.543,0,0.984,0.439,0.984,0.984V12.463z"/>
</svg>
