<?xml version="1.0" encoding="utf-8"?>
<!-- Generator: Adobe Illustrator 15.0.0, SVG Export Plug-In  -->
<!DOCTYPE svg PUBLIC "-//W3C//DTD SVG 1.1//EN" "http://www.w3.org/Graphics/SVG/1.1/DTD/svg11.dtd" [
	<!ENTITY ns_flows "http://ns.adobe.com/Flows/1.0/">
]>
<svg version="1.1"
	 xmlns="http://www.w3.org/2000/svg" xmlns:xlink="http://www.w3.org/1999/xlink" xmlns:a="http://ns.adobe.com/AdobeSVGViewerExtensions/3.0/"
	 x="0px" y="0px" width="16px" height="16px" viewBox="0 0 16 16" enable-background="new 0 0 16 16" xml:space="preserve">
<defs>
</defs>
<path fill="#404040" d="M0,0v16h16V0H0z M13.074,5.206c0.006,0.113,0.008,0.227,0.008,0.34c0,3.472-2.633,7.478-7.449,7.478
	c-1.479,0-2.856-0.438-4.014-1.184c0.206,0.025,0.414,0.037,0.625,0.037c1.227,0,2.355-0.42,3.252-1.123
	C4.35,10.732,3.383,9.973,3.051,8.93c0.158,0.029,0.322,0.049,0.491,0.049c0.238,0,0.47-0.035,0.689-0.096
	c-1.197-0.24-2.1-1.302-2.1-2.576c0-0.011,0-0.022,0-0.033c0.354,0.198,0.757,0.315,1.186,0.329
	C2.614,6.131,2.152,5.328,2.152,4.416c0-0.481,0.131-0.933,0.355-1.321C3.799,4.686,5.728,5.73,7.905,5.84
	C7.859,5.646,7.836,5.446,7.836,5.242c0-1.45,1.173-2.627,2.618-2.627c0.753,0,1.435,0.319,1.911,0.829
	c0.596-0.118,1.156-0.335,1.664-0.638c-0.195,0.614-0.611,1.129-1.15,1.455c0.528-0.064,1.032-0.205,1.502-0.414
	C14.031,4.374,13.586,4.834,13.074,5.206z"/>
</svg>
