<?xml version="1.0" encoding="utf-8"?>
<!-- Generator: Adobe Illustrator 15.0.0, SVG Export Plug-In  -->
<!DOCTYPE svg PUBLIC "-//W3C//DTD SVG 1.1//EN" "http://www.w3.org/Graphics/SVG/1.1/DTD/svg11.dtd" [
	<!ENTITY ns_flows "http://ns.adobe.com/Flows/1.0/">
]>
<svg version="1.1"
	 xmlns="http://www.w3.org/2000/svg" xmlns:xlink="http://www.w3.org/1999/xlink" xmlns:a="http://ns.adobe.com/AdobeSVGViewerExtensions/3.0/"
	 x="0px" y="0px" width="38px" height="39px" viewBox="0.021 -0.792 38 39" enable-background="new 0.021 -0.792 38 39"
	 xml:space="preserve">
<defs>
</defs>
<circle fill="#5E7BBF" cx="18.667" cy="18.666" r="18.667"/>
<path fill="#FFFFFF" d="M23.474,20.753c-0.762,0-1.453,0.306-1.955,0.801l-4.944-2.315c0.049-0.205,0.078-0.421,0.078-0.642
	c0-0.054-0.007-0.105-0.011-0.157l5.104-2.46c0.475,0.375,1.075,0.601,1.728,0.601c1.544,0,2.793-1.25,2.793-2.792
	c0-1.543-1.249-2.793-2.793-2.793c-1.543,0-2.793,1.25-2.793,2.793c0,0.152,0.017,0.299,0.039,0.444l-4.923,2.355
	c-0.503-0.486-1.185-0.785-1.938-0.785c-1.544,0-2.793,1.25-2.793,2.794c0,1.541,1.249,2.792,2.793,2.792
	c0.616,0,1.184-0.202,1.646-0.541l5.187,2.51c-0.005,0.063-0.011,0.125-0.011,0.188c0,1.543,1.25,2.794,2.793,2.794
	c1.544,0,2.793-1.251,2.793-2.794S25.018,20.753,23.474,20.753z"/>
</svg>
